<?xml version="1.0" encoding="utf-8"?>
<!-- Generator: Adobe Illustrator 25.0.1, SVG Export Plug-In . SVG Version: 6.00 Build 0)  -->
<svg version="1.1" id="Layer_1" xmlns="http://www.w3.org/2000/svg" xmlns:xlink="http://www.w3.org/1999/xlink" x="0px" y="0px"
	 viewBox="0 0 360.2 54.8" style="enable-background:new 0 0 360.2 54.8;" xml:space="preserve">
<style type="text/css">
	.st0{fill:#3D4A47;}
	.st1{fill:#E66924;}
	.st2{fill:#70808E;}
</style>
<g>
	<g>
		<path class="st0" d="M110.4,49.5c11.8,0,21.6-9.9,21.6-21.9c0-12.1-9.8-22.1-21.6-22.1c-11.8,0-21.5,10-21.5,22.1
			C88.9,39.7,98.6,49.5,110.4,49.5 M110.4,0.2c14.9,0,26.8,12.2,26.8,27.4c0,15.2-11.9,27.3-26.8,27.3c-14.9,0-26.7-12.1-26.7-27.3
			C83.7,12.4,95.5,0.2,110.4,0.2"/>
		<path class="st0" d="M149.7,1.6c0-0.8,0.7-1.4,1.4-1.4h1.9l33.6,42.7h0.1V2.4c0-0.8,0.6-1.4,1.4-1.4h2.6c0.7,0,1.4,0.7,1.4,1.4
			v51.1c0,0.8-0.7,1.4-1.4,1.4h-1.3l-34.2-43.5h-0.1v41.3c0,0.8-0.6,1.4-1.4,1.4h-2.6c-0.7,0-1.4-0.7-1.4-1.4V1.6z"/>
		<path class="st0" d="M221.8,6h-13c-0.8,0-1.4-0.7-1.4-1.4V2.4c0-0.8,0.6-1.4,1.4-1.4h31.6c0.8,0,1.4,0.7,1.4,1.4v2.2
			c0,0.8-0.6,1.4-1.4,1.4h-13v46.6c0,0.8-0.7,1.4-1.4,1.4h-2.8c-0.7,0-1.4-0.7-1.4-1.4V6z"/>
		<path class="st0" d="M258.6,2.4c0-0.8,0.7-1.4,1.4-1.4h3c0.7,0,1.4,0.7,1.4,1.4v50.3c0,0.8-0.7,1.4-1.4,1.4h-3
			c-0.7,0-1.4-0.7-1.4-1.4V2.4z"/>
		<path class="st0" d="M309.8,0.2c7.5,0,13,2.7,18,7.1c0.6,0.6,0.7,1.5,0.1,2.1l-2,2.1c-0.6,0.8-1.2,0.7-1.9-0.1
			c-3.9-3.4-9.2-5.7-14.2-5.7c-11.8,0-20.8,10.1-20.8,21.9c0,11.7,9,21.8,20.8,21.8c6.5,0,10.3-2.7,14.2-5.7
			c0.7-0.6,1.3-0.5,1.8-0.2l2.2,2c0.6,0.5,0.4,1.5-0.1,2c-5.1,5-11.5,7.4-18.1,7.4c-14.9,0-26.9-12.1-26.9-27.3
			C282.9,12.4,294.9,0.2,309.8,0.2"/>
		<path class="st1" d="M53.5-0.1H16.1C15.5-0.1,15,0.4,15,1v12.3h25.4v25.9h12c0.6,0,1.1-0.5,1.1-1.1V-0.1z"/>
		<path class="st2" d="M53.2,52.3L40.4,39.2H15V13.4L2.2,0.3C1.4-0.5,0,0.1,0,1.2v53.3h52.3C53.4,54.6,54,53.2,53.2,52.3"/>
	</g>

</g>
</svg>
